<svg xmlns="http://www.w3.org/2000/svg" fill="none" viewBox="0 0 32 32">
    <!-- Cloud shape -->
    <path d="M8.5 20c-2.5 0-4.5-2-4.5-4.5 0-2.2 1.6-4 3.7-4.4C8.3 9.3 10 8 12 8c1.4 0 2.7.7 3.5 1.8.8-.3 1.6-.5 2.5-.5 3.3 0 6 2.7 6 6 0 .8-.2 1.5-.5 2.2 1.8.5 3 2.1 3 4 0 2.2-1.8 4-4 4H8.5z" fill="#667eea"/>
    
    <!-- Dollar sign -->
    <path d="M16 11v2m0 6v2m-2-8c0-.6.4-1 1-1h2c.6 0 1 .4 1 1s-.4 1-1 1h-2c-.6 0-1-.4-1-1zm0 4c0 .6.4 1 1 1h2c.6 0 1-.4 1-1s-.4-1-1-1h-2c-.6 0-1 .4-1 1z" stroke="#fbbf24" stroke-width="1.5" stroke-linecap="round"/>
    
    <!-- Downward trending arrow -->
    <path d="M24 26l3-3m0 0l-3-3m3 3h-6" stroke="#10b981" stroke-width="2" stroke-linecap="round" stroke-linejoin="round"/>
    
    <style>
        @media (prefers-color-scheme: dark) {
            path:first-child { fill: #764ba2; }
        }
    </style>
</svg>
