<svg xmlns="http://www.w3.org/2000/svg" width="1200" height="630" viewBox="0 0 1200 630">
  <!-- Background gradient -->
  <defs>
    <linearGradient id="bgGradient" x1="0%" y1="0%" x2="100%" y2="100%">
      <stop offset="0%" style="stop-color:#667eea;stop-opacity:1" />
      <stop offset="100%" style="stop-color:#764ba2;stop-opacity:1" />
    </linearGradient>
  </defs>
  
  <!-- Background -->
  <rect width="1200" height="630" fill="url(#bgGradient)"/>
  
  <!-- Main content container -->
  <g transform="translate(100, 100)">
    
    <!-- Brand logo/icon -->
    <g transform="translate(50, 50)">
      <!-- Cloud shape -->
      <path d="M50 120c-15 0-27-12-27-27 0-13.2 9.6-24 22.2-26.4C50.8 55.8 59 48 69 48c8.4 0 16.2 4.2 21 10.8 4.8-1.8 9.6-3 15-3 19.8 0 36 16.2 36 36 0 4.8-1.2 9-3 13.2 10.8 3 18 12.6 18 24 0 13.2-10.8 24-24 24H50z" fill="#ffffff" opacity="0.9"/>
      
      <!-- Dollar sign -->
      <path d="M86 66v12m0 36v12m-12-48c0-3.6 2.4-6 6-6h12c3.6 0 6 2.4 6 6s-2.4 6-6 6h-12c-3.6 0-6-2.4-6-6zm0 24c0 3.6 2.4 6 6 6h12c3.6 0 6-2.4 6-6s-2.4-6-6-6h-12c-3.6 0-6 2.4-6 6z" stroke="#fbbf24" stroke-width="3" stroke-linecap="round" fill="none"/>
      
      <!-- Downward trending arrow -->
      <path d="M144 156l18-18m0 0l-18-18m18 18h-36" stroke="#10b981" stroke-width="4" stroke-linecap="round" stroke-linejoin="round" fill="none"/>
    </g>
      <!-- Main heading -->
    <text x="280" y="100" font-family="Arial, sans-serif" font-size="72" font-weight="bold" fill="white">
      C³ - Cloud Cost Control
    </text>
    
    <!-- Subheading -->
    <text x="280" y="160" font-family="Arial, sans-serif" font-size="36" fill="white" opacity="0.9">
      Azure Cost Optimization Services
    </text>
    
    <!-- Key benefits -->
    <g transform="translate(280, 220)">
      <text x="0" y="0" font-family="Arial, sans-serif" font-size="28" fill="white" opacity="0.8">
        ✓ Cut Azure costs by 30-50%
      </text>
      <text x="0" y="50" font-family="Arial, sans-serif" font-size="28" fill="white" opacity="0.8">
        ✓ Expert cost analysis & optimization
      </text>
      <text x="0" y="100" font-family="Arial, sans-serif" font-size="28" fill="white" opacity="0.8">
        ✓ Ongoing monitoring & reporting
      </text>
    </g>
    
    <!-- Website URL -->
    <text x="280" y="420" font-family="Arial, sans-serif" font-size="32" font-weight="600" fill="white">
      cloudcostcontrol.net
    </text>
    
  </g>
  
  <!-- Decorative elements -->
  <circle cx="950" cy="150" r="60" fill="white" opacity="0.1"/>
  <circle cx="1050" cy="400" r="40" fill="white" opacity="0.1"/>
  <circle cx="150" cy="500" r="30" fill="white" opacity="0.1"/>
</svg>
